<svg version="1.0" xmlns="http://www.w3.org/2000/svg" width="700.000000pt" height="704.000000pt"
    viewBox="0 0 700.000000 704.000000" preserveAspectRatio="xMidYMid meet">
    <metadata>
        Created by potrace 1.12, written by Peter Selinger 2001-2015
    </metadata>
    <g transform="translate(0.000000,704.000000) scale(0.100000,-0.100000)" fill="#548235" stroke="none">
        <path d="M4642 5892 c-66 -24 -118 -65 -159 -126 -40 -58 -53 -103 -53 -178 0
-117 64 -220 172 -278 56 -31 71 -34 143 -35 91 0 145 20 209 76 52 45 84 98
102 171 28 106 -5 215 -88 295 -85 83 -218 113 -326 75z"></path>
        <path d="M2672 5373 c-83 -54 -104 -158 -49 -242 31 -47 80 -71 144 -71 115 0
201 123 158 226 -45 108 -160 147 -253 87z"></path>
        <path d="M2145 5356 c-60 -28 -87 -56 -114 -116 -43 -95 -11 -210 77 -273 37
-27 54 -32 116 -35 58 -3 81 0 112 16 82 42 124 111 124 202 0 73 -22 121 -79
173 -67 61 -152 73 -236 33z"></path>
        <path d="M3174 5351 c-58 -27 -88 -73 -88 -136 0 -86 60 -149 143 -149 83 0
141 53 149 134 11 117 -100 199 -204 151z"></path>
        <path d="M3534 5227 c-72 -66 -50 -174 43 -206 35 -13 46 -13 79 0 71 27 102
104 69 169 -40 77 -128 95 -191 37z"></path>
        <path d="M4669 5095 c-104 -33 -189 -148 -189 -256 0 -168 127 -288 293 -277
73 5 122 26 171 74 59 58 80 108 80 194 0 81 -17 126 -70 189 -61 72 -190 107
-285 76z"></path>
        <path d="M3854 5071 c-36 -22 -58 -75 -48 -115 3 -14 20 -37 36 -51 68 -58
168 -13 168 75 0 34 -6 48 -34 76 -40 40 -75 44 -122 15z"></path>
        <path d="M5272 4964 c-202 -101 -203 -378 -1 -489 45 -25 65 -30 124 -30 59 0
79 5 124 30 165 91 199 287 76 433 -69 82 -219 108 -323 56z"></path>
        <path d="M2762 4859 c-137 -68 -117 -278 32 -320 77 -21 163 18 202 92 18 36
18 112 0 147 -48 91 -145 125 -234 81z"></path>
        <path d="M4071 4851 c-42 -40 -43 -90 -2 -132 39 -38 80 -39 123 0 44 39 44
93 -1 133 -41 37 -80 36 -120 -1z"></path>
        <path d="M2215 4833 c-80 -42 -125 -114 -125 -203 0 -127 103 -230 230 -230
78 0 174 69 207 147 41 99 -10 234 -108 283 -48 25 -160 27 -204 3z"></path>
        <path d="M3230 4818 c-38 -27 -70 -81 -70 -121 0 -71 59 -140 130 -152 48 -8
114 20 144 62 29 40 32 120 7 161 -45 71 -145 95 -211 50z"></path>
        <path d="M3609 4701 c-33 -33 -39 -45 -39 -82 0 -100 93 -159 180 -114 43 22
60 53 60 108 0 79 -48 127 -126 127 -29 0 -44 -8 -75 -39z"></path>
        <path d="M1625 4644 c-57 -20 -106 -64 -139 -123 -94 -173 14 -381 210 -406
156 -21 304 113 304 274 0 108 -77 221 -174 254 -59 20 -146 21 -201 1z"></path>
        <path d="M3933 4550 c-37 -22 -53 -48 -53 -85 0 -59 45 -104 104 -105 30 0 45
7 72 34 51 51 43 119 -18 156 -41 25 -65 25 -105 0z"></path>
        <path d="M4542 4409 c-152 -75 -163 -304 -19 -393 89 -55 194 -46 270 23 156
141 57 391 -155 391 -34 0 -69 -8 -96 -21z"></path>
        <path d="M5192 4300 c-155 -70 -180 -285 -45 -386 23 -17 64 -37 92 -44 132
-31 270 83 271 224 0 159 -174 272 -318 206z"></path>
        <path d="M3025 4265 c-74 -27 -125 -113 -111 -187 26 -140 193 -193 292 -94
129 129 -9 344 -181 281z"></path>
        <path d="M2490 4247 c-53 -17 -133 -102 -149 -160 -43 -151 92 -304 248 -283
176 24 258 233 143 366 -63 75 -156 104 -242 77z"></path>
        <path d="M3482 4220 c-134 -82 -68 -292 87 -277 106 11 167 116 122 210 -38
78 -137 111 -209 67z"></path>
        <path d="M3885 4126 c-62 -27 -90 -122 -52 -176 75 -107 227 -60 227 69 0 85
-96 143 -175 107z"></path>
        <path d="M5663 4079 c-80 -39 -123 -111 -123 -205 0 -64 18 -107 62 -153 42
-42 79 -61 136 -68 75 -8 130 12 184 67 75 77 89 168 40 261 -55 107 -192 151
-299 98z"></path>
        <path d="M1884 4048 c-57 -19 -126 -80 -156 -137 -22 -42 -28 -67 -28 -116 0
-115 47 -198 142 -251 46 -25 63 -29 133 -29 57 0 89 5 112 18 87 47 149 135
160 227 12 101 -56 223 -151 272 -47 24 -163 33 -212 16z"></path>
        <path d="M4355 3876 c-72 -31 -115 -122 -95 -198 21 -78 86 -128 167 -128 102
1 177 79 170 177 -9 122 -131 197 -242 149z"></path>
        <path d="M4985 3757 c-104 -59 -123 -191 -41 -273 83 -83 223 -58 275 48 25
53 26 86 6 135 -20 48 -41 71 -87 94 -49 25 -104 24 -153 -4z"></path>
        <path d="M1241 3679 c-120 -37 -210 -154 -219 -284 -14 -225 209 -392 423
-318 69 24 166 120 188 187 23 68 22 163 -3 229 -24 65 -91 136 -157 168 -53
26 -176 35 -232 18z"></path>
        <path d="M3018 3644 c-54 -29 -73 -105 -42 -165 21 -42 89 -72 134 -59 101 29
128 148 49 215 -35 29 -97 33 -141 9z"></path>
        <path d="M5465 3541 c-75 -45 -108 -119 -86 -192 41 -138 203 -174 298 -66 97
111 16 277 -134 277 -29 0 -60 -7 -78 -19z"></path>
        <path d="M4090 3458 c-54 -37 -74 -72 -74 -128 0 -146 190 -203 271 -81 29 44
31 113 3 159 -43 70 -136 93 -200 50z"></path>
        <path d="M2620 3457 c-36 -18 -65 -76 -56 -112 10 -40 62 -85 98 -85 62 0 107
44 108 103 0 49 -13 73 -50 92 -35 18 -67 19 -100 2z"></path>
        <path d="M2246 3399 c-35 -41 -34 -83 3 -120 56 -56 145 -27 157 52 5 28 1 41
-21 67 -22 27 -34 32 -70 32 -36 0 -48 -5 -69 -31z"></path>
        <path d="M4723 3340 c-36 -21 -73 -85 -73 -125 0 -35 35 -101 64 -120 67 -44
127 -40 189 15 41 37 42 39 42 105 0 65 -1 67 -42 106 -38 35 -47 39 -95 39
-35 0 -64 -7 -85 -20z"></path>
        <path d="M3134 3301 c-98 -46 -114 -172 -30 -250 20 -19 40 -26 84 -28 71 -5
112 17 143 78 64 126 -68 261 -197 200z"></path>
        <path d="M3845 3160 c-43 -17 -70 -59 -70 -108 0 -57 24 -94 77 -118 35 -16
40 -16 82 0 78 30 108 112 64 176 -37 54 -96 74 -153 50z"></path>
        <path d="M2609 3137 c-60 -40 -76 -105 -39 -164 49 -80 152 -82 207 -3 39 56
11 149 -53 176 -47 20 -76 17 -115 -9z"></path>
        <path d="M2181 3124 c-60 -50 -46 -140 26 -170 46 -20 86 -10 118 28 82 98
-46 225 -144 142z"></path>
        <path d="M5210 3128 c-54 -37 -74 -72 -74 -128 0 -56 20 -91 74 -127 92 -63
220 10 220 127 0 117 -128 190 -220 128z"></path>
        <path d="M4483 3046 c-39 -18 -73 -70 -73 -111 0 -42 33 -92 74 -111 99 -48
205 57 163 159 -27 62 -101 91 -164 63z"></path>
        <path d="M3345 2906 c-42 -18 -93 -79 -101 -121 -14 -75 23 -156 86 -187 78
-39 171 -16 224 55 32 43 30 141 -4 190 -44 66 -135 94 -205 63z"></path>
        <path d="M4189 2855 c-77 -42 -50 -177 36 -185 47 -5 68 2 96 29 40 41 41 97
0 140 -23 25 -37 31 -68 31 -21 -1 -50 -7 -64 -15z"></path>
        <path d="M2189 2823 c-55 -34 -74 -105 -45 -162 21 -40 59 -61 110 -61 116 0
164 145 71 218 -34 27 -98 29 -136 5z"></path>
        <path d="M4932 2806 c-34 -31 -37 -39 -37 -86 0 -47 3 -55 37 -86 31 -28 45
-34 83 -34 83 0 141 77 115 155 -17 52 -62 85 -116 85 -37 0 -51 -6 -82 -34z"></path>
        <path d="M2700 2784 c-94 -80 -76 -217 34 -259 58 -22 105 -14 151 26 59 53
69 137 23 201 -27 39 -69 58 -127 58 -39 0 -56 -6 -81 -26z"></path>
        <path d="M4674 2641 c-85 -52 -57 -174 43 -188 39 -5 46 -2 78 30 52 52 46
125 -15 160 -37 22 -68 21 -106 -2z"></path>
        <path d="M4400 2558 c-36 -19 -63 -78 -51 -111 26 -68 96 -87 150 -41 80 67
-7 199 -99 152z"></path>
        <path d="M3665 2537 c-56 -15 -137 -98 -154 -159 -46 -165 129 -332 287 -273
94 35 154 118 155 214 1 97 -67 189 -157 216 -56 17 -75 17 -131 2z"></path>
        <path d="M2325 2493 c-59 -15 -105 -80 -105 -148 0 -88 57 -145 145 -145 65 0
110 28 135 83 23 51 25 74 6 118 -31 75 -104 111 -181 92z"></path>
        <path d="M2961 2410 c-96 -22 -153 -127 -122 -223 27 -82 132 -135 213 -108
40 13 92 64 107 104 48 128 -64 257 -198 227z"></path>
        <path d="M4124 2174 c-55 -20 -120 -77 -146 -128 -30 -58 -36 -162 -13 -223
71 -184 311 -237 449 -98 129 129 94 353 -69 437 -52 27 -164 34 -221 12z"></path>
        <path d="M2515 2086 c-71 -31 -111 -103 -102 -183 9 -85 76 -143 164 -143 64
0 103 18 137 63 52 67 44 167 -17 224 -53 50 -123 65 -182 39z"></path>
        <path d="M3230 2024 c-98 -42 -154 -153 -130 -254 40 -166 235 -235 364 -129
99 82 104 251 9 341 -59 56 -167 75 -243 42z"></path>
        <path d="M4790 1861 c-47 -15 -85 -39 -126 -83 -56 -58 -84 -116 -91 -191 -12
-130 50 -244 168 -307 59 -32 71 -35 149 -34 72 0 93 4 135 26 108 57 168 150
174 271 6 134 -54 238 -170 296 -54 27 -72 31 -138 30 -42 0 -87 -4 -101 -8z"></path>
        <path d="M2854 1721 c-116 -29 -195 -139 -180 -249 24 -177 239 -261 368 -144
56 51 78 99 78 172 0 68 -21 119 -67 161 -55 52 -135 76 -199 60z"></path>
        <path d="M3724 1672 c-230 -80 -249 -391 -30 -504 88 -45 215 -30 293 37 62
53 93 123 93 210 0 123 -61 212 -178 255 -64 24 -111 25 -178 2z"></path>
    </g>
</svg>